<svg width="32" height="32" viewBox="0 0 32 32" fill="none" xmlns="http://www.w3.org/2000/svg">
<path d="M24.3937 9.48699C24.9128 8.96784 24.9128 8.12614 24.3937 7.60699C23.8745 7.08784 23.0328 7.08784 22.5137 7.60699L16.0003 14.1203C13.4183 11.5383 11.8425 9.96251 9.48768 7.60768C8.96854 7.08854 8.12614 7.08784 7.60699 7.60699C7.08784 8.12614 7.08784 8.96784 7.60699 9.48699L14.1203 16.0003L7.60699 22.5137C7.08784 23.0328 7.08784 23.8745 7.60699 24.3937C8.12614 24.9128 8.96784 24.9128 9.48699 24.3937L16.0003 17.8803L22.5137 24.3937C23.0328 24.9128 23.8745 24.9128 24.3937 24.3937C24.9128 23.8745 24.9128 23.0328 24.3937 22.5137L17.8803 16.0003L24.3937 9.48699Z" fill="#2FC78C"/>
</svg>
