<svg width="62" height="48" viewBox="0 0 62 48" fill="none" xmlns="http://www.w3.org/2000/svg">
<path fill-rule="evenodd" clip-rule="evenodd" d="M13.8745 9.45171C14.9195 9.45171 15.9644 9.56698 17.0094 9.79751C18.3446 4.14953 23.3951 0 29.4326 0C34.4831 0 38.8371 2.88162 40.927 7.08879C41.7397 6.85826 42.6105 6.74299 43.4813 6.74299C49.2285 6.74299 53.8727 11.3536 53.8727 17.0592V17.1168C58.5169 17.9813 62 22.0156 62 26.8567C62 32.3318 57.53 36.7695 52.015 36.7695L48.7852 36.789C48.9266 35.88 49 34.9486 49 34C49 33.5927 48.9865 33.1885 48.9598 32.7879L51.9908 32.7695L52.0029 32.7695H52.015C55.3483 32.7695 58 30.0953 58 26.8567C58 23.9907 55.9384 21.5701 53.1407 21.0493L49.8727 20.441V17.1168V17.0592C49.8727 13.5901 47.0468 10.743 43.4813 10.743C42.9556 10.743 42.4538 10.8135 42.0185 10.937L38.8225 11.8435L37.3446 8.8683C35.9117 5.98369 32.9226 4 29.4326 4C25.2789 4 21.8173 6.84616 20.9021 10.7178L19.9955 14.5525L16.1476 13.7036C15.3789 13.534 14.6228 13.4517 13.8745 13.4517C8.39331 13.4517 4 17.8549 4 23.2259C4 28.3177 7.94856 32.5397 13.0293 32.9648C13.0098 33.3074 13 33.6525 13 34C13 35.0173 13.0844 36.0149 13.2466 36.9861C5.87511 36.6602 0 30.6244 0 23.2259C0 15.6184 6.21161 9.45171 13.8745 9.45171Z" fill="white"/>
<circle cx="31" cy="34" r="12" stroke="white" stroke-width="4"/>
<path d="M30.2274 28.2103V29.5415C29.9059 29.5964 29.6066 29.6845 29.3299 29.8063C28.8236 30.0293 28.4258 30.3477 28.1406 30.7626C27.8541 31.1752 27.7126 31.663 27.7126 32.2214C27.7126 32.8073 27.8435 33.2982 28.1129 33.6868C28.3781 34.0694 28.7477 34.3885 29.2179 34.6457L29.2186 34.6461C29.6826 34.8954 30.2203 35.131 30.8311 35.3529L30.8311 35.3529L30.8326 35.3535C31.1668 35.4688 31.4273 35.589 31.6173 35.7127L31.6173 35.7127L31.6186 35.7135C31.8071 35.8321 31.9368 35.9653 32.0148 36.111L32.0148 36.111L32.0165 36.1139C32.0982 36.255 32.1421 36.4355 32.1421 36.6609C32.1421 36.8484 32.0995 37.0152 32.0159 37.1634L32.0154 37.1643C31.9385 37.3041 31.8182 37.4162 31.6487 37.4992C31.4809 37.5814 31.2653 37.6253 30.9974 37.6253C30.8211 37.6253 30.6496 37.6028 30.4825 37.5578C30.325 37.5099 30.1824 37.4324 30.0541 37.3248C29.9288 37.2154 29.8261 37.069 29.7477 36.8822C29.6707 36.6944 29.6302 36.4573 29.6302 36.1676V36.0676H29.5302H27.4302H27.3302V36.1676C27.3302 36.7672 27.434 37.2791 27.6469 37.6991L27.6469 37.6991L27.6476 37.7003C27.863 38.1114 28.149 38.4441 28.5059 38.6962L28.5064 38.6965C28.8642 38.9459 29.26 39.126 29.6931 39.2371L29.694 39.2373C29.871 39.2809 30.0488 39.3155 30.2274 39.3411V40.5616V40.6616H30.3274H31.7136H31.8136V40.5616V39.3404C32.1653 39.2898 32.49 39.2043 32.7873 39.0836L32.788 39.0833C33.3038 38.8693 33.7112 38.5577 34.0061 38.1471L34.0064 38.1467C34.3029 37.7292 34.449 37.2279 34.449 36.6479C34.449 36.066 34.3157 35.5772 34.0415 35.1886C33.7765 34.8065 33.4073 34.4854 32.9375 34.224C32.478 33.9658 31.9471 33.7237 31.3455 33.4973L31.3455 33.4973C30.9917 33.3644 30.7184 33.2352 30.5226 33.1106C30.3277 32.9866 30.1985 32.8572 30.1256 32.7254C30.0514 32.5866 30.0126 32.4218 30.0126 32.2279C30.0126 32.0378 30.0494 31.8689 30.121 31.7194C30.1905 31.5744 30.2987 31.4593 30.4489 31.3737C30.5961 31.2897 30.793 31.244 31.046 31.244C31.3821 31.244 31.6462 31.3573 31.848 31.5809L31.8479 31.5809L31.8485 31.5816C32.047 31.7977 32.156 32.1426 32.156 32.6368V32.7368H32.256H34.349H34.449V32.6368C34.449 31.9781 34.3092 31.41 34.0247 30.9372C33.7457 30.4613 33.3508 30.0977 32.8426 29.8471C32.5307 29.6933 32.1874 29.5874 31.8136 29.5286V28.2103V28.1103H31.7136H30.3274H30.2274V28.2103Z" fill="white" stroke="white" stroke-width="0.2"/>
</svg>
