<svg width="14" height="14" viewBox="0 0 14 14" fill="none" xmlns="http://www.w3.org/2000/svg">
<path fill-rule="evenodd" clip-rule="evenodd" d="M1.74482 1.29355C1.62519 1.29355 1.51046 1.34107 1.42586 1.42566C1.34127 1.51026 1.29375 1.62499 1.29375 1.74462V12.2553C1.29375 12.3749 1.34127 12.4896 1.42586 12.5742C1.51046 12.6588 1.62519 12.7064 1.74482 12.7064H12.2555C12.3751 12.7064 12.4898 12.6588 12.5744 12.5742C12.659 12.4896 12.7066 12.3749 12.7066 12.2553V9.73276C12.7066 9.40132 12.9752 9.13276 13.3066 9.13276C13.6379 9.13276 13.9066 9.40132 13.9066 9.73276V12.2553C13.9066 12.6932 13.7326 13.1132 13.423 13.4228C13.1134 13.7324 12.6934 13.9064 12.2555 13.9064H1.74482C1.30693 13.9064 0.886974 13.7324 0.577338 13.4228C0.267702 13.1132 0.09375 12.6932 0.09375 12.2553V1.74462C0.09375 1.30673 0.267702 0.886776 0.577338 0.57714C0.886974 0.267504 1.30693 0.0935516 1.74482 0.0935516H4.26737C4.59875 0.0935516 4.86737 0.362184 4.86737 0.693552C4.86737 1.02492 4.59875 1.29355 4.26737 1.29355H1.74482ZM12.7066 2.14205L12.7064 5.94887C12.7064 6.28024 12.975 6.54888 13.3064 6.54889C13.6378 6.5489 13.9064 6.28028 13.9064 5.9489L13.9066 1.21908C13.9066 0.92058 13.788 0.634296 13.5769 0.423216C13.3658 0.212136 13.0795 0.0935516 12.7811 0.0935516H8.05127C7.71983 0.0935516 7.45127 0.362184 7.45127 0.693552C7.45127 1.02492 7.71983 1.29355 8.05127 1.29355H11.8579L4.99924 8.15224C4.76493 8.3866 4.76493 8.76652 4.99924 9.00076C5.23355 9.23512 5.61346 9.23512 5.84777 9.00076L12.7066 2.14205Z" fill="white"/>
</svg>
