<svg width="12" height="12" viewBox="0 0 12 12" fill="none" xmlns="http://www.w3.org/2000/svg">
<path d="M6 0C5.86931 8.51664e-06 5.74381 0.0511875 5.65039 0.142578L0.196289 4.60352C0.18999 4.60825 0.183803 4.61314 0.177734 4.61816L0.15918 4.63379V4.63477C0.109031 4.68148 0.0690233 4.73801 0.0416402 4.80084C0.014257 4.86367 8.35372e-05 4.93146 0 5C0 5.13261 0.0526784 5.25979 0.146447 5.35355C0.240215 5.44732 0.367392 5.5 0.5 5.5H1V11C1 11.5525 1.4475 12 2 12H10C10.5525 12 11 11.5525 11 11V5.5H11.5C11.6326 5.5 11.7598 5.44732 11.8536 5.35355C11.9473 5.25979 12 5.13261 12 5C12.0001 4.9313 11.9859 4.86332 11.9586 4.80031C11.9312 4.73731 11.8911 4.68062 11.8408 4.63379L11.833 4.62793C11.822 4.61799 11.8106 4.60854 11.7988 4.59961L11 3.94629V2C11 1.724 10.776 1.5 10.5 1.5H10C9.724 1.5 9.5 1.724 9.5 2V2.71973L6.33887 0.133789C6.24676 0.0481631 6.12576 0.000392667 6 0ZM7.5 6.5H9.5V10.5H7.5V6.5Z" fill="#2FC78C"/>
</svg>
