<svg width="35" height="26" viewBox="0 0 35 26" fill="none" xmlns="http://www.w3.org/2000/svg">
<path fill-rule="evenodd" clip-rule="evenodd" d="M25.4118 1.6H1.58824L1.58824 18.4H25.4118V1.6ZM1.58824 0C0.711077 0 0 0.716344 0 1.6V18.4C0 19.2837 0.711077 20 1.58824 20H25.4118C26.2889 20 27 19.2837 27 18.4V1.6C27 0.716344 26.2889 0 25.4118 0H1.58824Z" fill="#2FC78C"/>
<path d="M8.3853 9.77489L4.03332 15.7299C3.95251 15.8404 4.02786 16 4.1609 16H22.8392C22.9607 16 23.0382 15.8642 22.9806 15.7523L18.1895 6.44189C17.8872 5.85451 17.0828 5.85224 16.7775 6.43789L13.2927 13.123C13.0065 13.672 12.2678 13.7131 11.9275 13.1989L9.6834 9.80702C9.37322 9.33819 8.71633 9.32193 8.3853 9.77489Z" fill="#2FC78C"/>
<path fill-rule="evenodd" clip-rule="evenodd" d="M5.5 6.33333C5.96024 6.33333 6.33333 5.96024 6.33333 5.5C6.33333 5.03976 5.96024 4.66667 5.5 4.66667C5.03976 4.66667 4.66667 5.03976 4.66667 5.5C4.66667 5.96024 5.03976 6.33333 5.5 6.33333ZM5.5 8C6.88071 8 8 6.88071 8 5.5C8 4.11929 6.88071 3 5.5 3C4.11929 3 3 4.11929 3 5.5C3 6.88071 4.11929 8 5.5 8Z" fill="#2FC78C"/>
<path d="M13 5.57143C13 4.70355 13.7036 4 14.5714 4H33.4286C34.2964 4 35 4.70355 35 5.57143V24.4286C35 25.2964 34.2964 26 33.4286 26H14.5714C13.7036 26 13 25.2964 13 24.4286V5.57143Z" fill="white"/>
<path d="M15 7.58333C15 6.70888 15.6716 6 16.5 6H31.5C32.3284 6 33 6.70888 33 7.58333V23.4167C33 24.2911 32.3284 25 31.5 25H16.5C15.6716 25 15 24.2911 15 23.4167V7.58333Z" fill="white"/>
<path fill-rule="evenodd" clip-rule="evenodd" d="M31.5 7.58333H16.5L16.5 23.4167H31.5V7.58333ZM16.5 6C15.6716 6 15 6.70888 15 7.58333V23.4167C15 24.2911 15.6716 25 16.5 25H31.5C32.3284 25 33 24.2911 33 23.4167V7.58333C33 6.70888 32.3284 6 31.5 6H16.5Z" fill="#2FC78C"/>
<path d="M26.9668 15.4333C27.0111 15.4645 27.0111 15.5355 26.9668 15.5667L22.1114 18.9873C22.0633 19.0212 22 18.9833 22 18.9206L22 12.0794C22 12.0167 22.0633 11.9788 22.1114 12.0127L26.9668 15.4333Z" fill="#2FC78C"/>
</svg>
