<svg width="24" height="25" viewBox="0 0 24 25" fill="none" xmlns="http://www.w3.org/2000/svg">
<path fill-rule="evenodd" clip-rule="evenodd" d="M6.0317 16.1925L16.3315 5.46358L18.755 7.98799L8.4552 18.7169L6.0317 16.1925ZM4.81995 14.9303L15.1197 4.20137L14.5139 3.57021L7.84934 10.5124C7.51472 10.8609 6.97221 10.8609 6.63759 10.5124C6.30297 10.1639 6.30297 9.59874 6.63759 9.2502L13.9041 1.68099C13.9054 1.67957 13.9067 1.67827 13.9081 1.67685C13.9499 1.63327 13.995 1.59514 14.0425 1.56245C14.3751 1.33376 14.827 1.37189 15.1198 1.67685L16.3315 2.93906L18.1492 1.04569C19.4876 -0.348564 21.6577 -0.348564 22.9962 1.04569C24.3346 2.43995 24.3346 4.70037 22.9962 6.09463L21.1785 7.9881C21.5132 8.33664 21.5132 8.90177 21.1785 9.25031C20.8439 9.59885 20.3014 9.59885 19.9668 9.25031L9.66695 19.9792L8.4552 21.2414L7.37202 22.3697C7.28725 22.4581 7.18564 22.5269 7.07372 22.5717L1.16646 24.9384C0.473522 25.216 -0.20736 24.5067 0.059146 23.7849L2.33119 17.6315C2.37423 17.515 2.44026 17.4092 2.52503 17.3208L3.60821 16.1925L4.81995 14.9303ZM19.9667 6.72579L17.5432 4.20126L19.3609 2.3079C20.0302 1.61083 21.1152 1.61083 21.7844 2.3079C22.4536 3.00508 22.4536 4.13535 21.7844 4.83242L19.9667 6.72579ZM7.24345 19.9792L4.81995 17.4547L3.86535 18.4491L2.35067 22.5514L6.28885 20.9736L7.24345 19.9792Z" fill="#2FC78C"/>
</svg>
