<svg width="44" height="44" viewBox="0 0 44 44" fill="none" xmlns="http://www.w3.org/2000/svg">
<circle cx="21.999" cy="22" r="20" stroke="white" stroke-width="4" stroke-linecap="square" stroke-dasharray="12 12"/>
<path d="M21.7522 24.308C22.3726 24.5222 22.8656 24.7483 23.231 24.9863C23.5965 25.2163 23.8599 25.4821 24.0214 25.7835C24.1914 26.077 24.2764 26.4419 24.2764 26.8782C24.2764 27.2511 24.1914 27.5882 24.0214 27.8897L21.7522 24.308ZM21.7522 24.308C20.6389 23.9035 19.6615 23.4751 18.8201 23.0229L21.7522 24.308ZM19.6249 31.5208C19.9702 31.6058 20.3173 31.6721 20.6661 31.7195V34.0296V34.1296H20.7661H23.3075H23.4075V34.0296V31.7183C24.074 31.6277 24.6865 31.4694 25.2446 31.2427L25.2453 31.2424C26.1783 30.8554 26.9122 30.2931 27.4427 29.5544L27.443 29.554C27.9752 28.8047 28.2391 27.9032 28.2391 26.8544C28.2391 25.8002 27.9976 24.9219 27.5071 24.2269C27.0297 23.5383 26.363 22.9576 25.5108 22.4835C24.6727 22.0125 23.7034 21.5703 22.6033 21.1564L22.6033 21.1564C21.9521 20.9116 21.445 20.6725 21.0793 20.4397C20.7144 20.2075 20.4654 19.961 20.3231 19.7029C20.1793 19.4344 20.1057 19.1181 20.1057 18.7511C20.1057 18.3915 20.1753 18.0694 20.3126 17.7829C20.4478 17.5009 20.6583 17.2777 20.9476 17.1126C21.2339 16.9494 21.6104 16.864 22.0837 16.864C22.7211 16.864 23.2285 17.0801 23.6157 17.5092L23.6163 17.5099C24.0002 17.9279 24.2019 18.5847 24.2019 19.5008V19.6008H24.3019H28.1391H28.2391V19.5008C28.2391 18.3048 27.9854 17.2788 27.4729 16.4273C26.9698 15.5693 26.2581 14.9136 25.3405 14.4611C24.7575 14.1736 24.1129 13.9782 23.4075 13.8739V11.3856V11.2856H23.3075H20.7661H20.6661V11.3856V13.8967C20.0564 13.9953 19.4912 14.1588 18.9711 14.3878C18.0552 14.7911 17.3387 15.3655 16.8256 16.1122C16.3112 16.8529 16.0557 17.7301 16.0557 18.7392C16.0557 19.8011 16.2928 20.6832 16.7747 21.3783C17.2524 22.0674 17.9194 22.6444 18.7722 23.1107L18.7728 23.111C19.6193 23.5659 20.6012 23.9962 21.7181 24.402L21.7196 24.4026C22.3358 24.6153 22.8204 24.8382 23.1765 25.0701L23.1778 25.0709C23.5323 25.2941 23.7819 25.5481 23.9333 25.8307L23.9332 25.8308L23.9349 25.8336C24.0939 26.1082 24.1764 26.4546 24.1764 26.8782C24.1764 27.2352 24.0952 27.5552 23.9343 27.8405L23.9338 27.8415C23.7835 28.1147 23.5493 28.3313 23.2253 28.49C22.9029 28.648 22.4942 28.7297 21.9944 28.7297C21.6637 28.7297 21.3415 28.6873 21.0276 28.6027C20.7272 28.5115 20.4552 28.3637 20.211 28.1588C19.9697 27.9484 19.7743 27.6686 19.6264 27.3159C19.4799 26.9586 19.4046 26.5124 19.4046 25.9739V25.8739H19.3046H15.4546H15.3546V25.9739C15.3546 27.0639 15.5434 27.9887 15.9263 28.744L15.9263 28.744L15.9269 28.7452C16.3162 29.4881 16.8321 30.0875 17.4749 30.5416L17.4754 30.5419C18.1229 30.9932 18.8393 31.3194 19.6239 31.5206L19.6249 31.5208Z" fill="white" stroke="white" stroke-width="0.2"/>
</svg>
