<svg width="1120" height="104" viewBox="0 0 1120 104" fill="none" xmlns="http://www.w3.org/2000/svg">
<g clip-path="url(#clip0_307_54)">
<path fill-rule="evenodd" clip-rule="evenodd" d="M963.494 53.949C962.81 55.1727 961.502 56 960 56L564 56L564 84C564 86.2091 562.209 88 560 88C557.791 88 556 86.2091 556 84L556 52C556 49.7909 557.791 48 560 48M560.006 48L956 48L956 20C956 17.7909 957.791 16 960 16C962.209 16 964 17.7909 964 20L964 51.9954L964 52C964 52.7076 963.816 53.3723 963.494 53.949M960 -1.74846e-07C962.209 -7.8281e-08 964 1.79086 964 4L964 8C964 10.2091 962.209 12 960 12C957.791 12 956 10.2091 956 8L956 4C956 1.79086 957.791 -2.7141e-07 960 -1.74846e-07ZM560 104C557.791 104 556 102.209 556 100L556 96C556 93.7909 557.791 92 560 92C562.209 92 564 93.7909 564 96L564 100C564 102.209 562.209 104 560 104Z" fill="#F0C118" fill-opacity="0.12"/>
</g>
<defs>
<clipPath id="clip0_307_54">
<rect width="1120" height="104" fill="white"/>
</clipPath>
</defs>
</svg>
