<svg width="1120" height="104" viewBox="0 0 1120 104" fill="none" xmlns="http://www.w3.org/2000/svg">
<path fill-rule="evenodd" clip-rule="evenodd" d="M960 0C962.209 0 964 1.79086 964 4V8C964 10.2091 962.209 12 960 12C957.791 12 956 10.2091 956 8V4C956 1.79086 957.791 0 960 0ZM964 52C964 54.2092 962.209 56 960 56L164 55.9999L164 84C164 86.2091 162.209 88 160 88C157.791 88 156 86.2091 156 84V52C156 51.2924 156.184 50.6277 156.506 50.051C157.19 48.8273 158.498 48 160 48C160 48 160 48 160 48L956 48.0001V20C956 17.7909 957.791 16 960 16C962.209 16 964 17.7909 964 20V52ZM160 104C157.791 104 156 102.209 156 100V96C156 93.7909 157.791 92 160 92C162.209 92 164 93.7909 164 96V100C164 102.209 162.209 104 160 104Z" fill="#2CC68E" fill-opacity="0.08"/>
</svg>
