<svg width="217" height="39" viewBox="0 0 217 39" fill="none" xmlns="http://www.w3.org/2000/svg">
<path d="M2.656 31V8.6H7.84V31H2.656ZM20.332 31.288C19.1 31.288 18.004 31.088 17.044 30.688C16.084 30.288 15.324 29.744 14.764 29.056C14.204 28.368 13.924 27.576 13.924 26.68C13.924 25.848 14.108 25.104 14.476 24.448C14.844 23.776 15.428 23.152 16.228 22.576C17.028 21.984 18.044 21.408 19.276 20.848C20.172 20.432 20.876 20.064 21.388 19.744C21.9 19.424 22.26 19.12 22.468 18.832C22.676 18.528 22.78 18.224 22.78 17.92C22.78 17.504 22.636 17.168 22.348 16.912C22.076 16.656 21.668 16.528 21.124 16.528C20.548 16.528 20.1 16.672 19.78 16.96C19.46 17.248 19.3 17.616 19.3 18.064C19.3 18.304 19.348 18.544 19.444 18.784C19.54 19.008 19.724 19.272 19.996 19.576C20.268 19.864 20.652 20.24 21.148 20.704L30.004 28.912L27.964 31.288L18.196 22.216C17.636 21.704 17.188 21.224 16.852 20.776C16.516 20.328 16.268 19.888 16.108 19.456C15.964 19.024 15.892 18.576 15.892 18.112C15.892 17.296 16.108 16.576 16.54 15.952C16.972 15.328 17.58 14.848 18.364 14.512C19.148 14.16 20.068 13.984 21.124 13.984C22.1 13.984 22.94 14.144 23.644 14.464C24.364 14.768 24.924 15.208 25.324 15.784C25.74 16.36 25.948 17.048 25.948 17.848C25.948 18.552 25.772 19.2 25.42 19.792C25.068 20.368 24.516 20.912 23.764 21.424C23.028 21.936 22.06 22.456 20.86 22.984C20.044 23.352 19.396 23.712 18.916 24.064C18.452 24.4 18.116 24.744 17.908 25.096C17.7 25.448 17.596 25.84 17.596 26.272C17.596 26.672 17.716 27.032 17.956 27.352C18.212 27.672 18.564 27.92 19.012 28.096C19.46 28.272 19.988 28.36 20.596 28.36C21.572 28.36 22.468 28.136 23.284 27.688C24.1 27.224 24.788 26.544 25.348 25.648C25.924 24.736 26.332 23.632 26.572 22.336L29.572 23.272C29.236 24.904 28.636 26.32 27.772 27.52C26.908 28.72 25.844 29.648 24.58 30.304C23.316 30.96 21.9 31.288 20.332 31.288ZM42.4569 31.384C40.6649 31.384 38.9476 31.1493 37.3049 30.68C35.6623 30.1893 34.3396 29.56 33.3369 28.792L35.0969 24.888C36.0569 25.5707 37.1876 26.136 38.4889 26.584C39.8116 27.0107 41.1449 27.224 42.4889 27.224C43.5129 27.224 44.3343 27.128 44.9529 26.936C45.5929 26.7227 46.0623 26.4347 46.3609 26.072C46.6596 25.7093 46.8089 25.2933 46.8089 24.824C46.8089 24.2267 46.5743 23.7573 46.1049 23.416C45.6356 23.0533 45.0169 22.7653 44.2489 22.552C43.4809 22.3173 42.6276 22.104 41.6889 21.912C40.7716 21.6987 39.8436 21.4427 38.9049 21.144C37.9876 20.8453 37.1449 20.4613 36.3769 19.992C35.6089 19.5227 34.9796 18.904 34.4889 18.136C34.0196 17.368 33.7849 16.3867 33.7849 15.192C33.7849 13.912 34.1263 12.7493 34.8089 11.704C35.5129 10.6373 36.5583 9.79467 37.9449 9.176C39.3529 8.536 41.1129 8.216 43.2249 8.216C44.6329 8.216 46.0196 8.38667 47.3849 8.728C48.7503 9.048 49.9556 9.53867 51.0009 10.2L49.4009 14.136C48.3556 13.5387 47.3103 13.1013 46.2649 12.824C45.2196 12.5253 44.1956 12.376 43.1929 12.376C42.1903 12.376 41.3689 12.4933 40.7289 12.728C40.0889 12.9627 39.6303 13.272 39.3529 13.656C39.0756 14.0187 38.9369 14.4453 38.9369 14.936C38.9369 15.512 39.1716 15.9813 39.6409 16.344C40.1103 16.6853 40.7289 16.9627 41.4969 17.176C42.2649 17.3893 43.1076 17.6027 44.0249 17.816C44.9636 18.0293 45.8916 18.2747 46.8089 18.552C47.7476 18.8293 48.6009 19.2027 49.3689 19.672C50.1369 20.1413 50.7556 20.76 51.2249 21.528C51.7156 22.296 51.9609 23.2667 51.9609 24.44C51.9609 25.6987 51.6089 26.8507 50.9049 27.896C50.2009 28.9413 49.1449 29.784 47.7369 30.424C46.3503 31.064 44.5903 31.384 42.4569 31.384ZM69.0217 31V14.2H76.2937C77.7977 14.2 79.0937 14.448 80.1817 14.944C81.2697 15.424 82.1097 16.12 82.7017 17.032C83.2937 17.944 83.5897 19.032 83.5897 20.296C83.5897 21.544 83.2937 22.624 82.7017 23.536C82.1097 24.448 81.2697 25.152 80.1817 25.648C79.0937 26.128 77.7977 26.368 76.2937 26.368H71.1817L72.9097 24.616V31H69.0217ZM72.9097 25.048L71.1817 23.2H76.0777C77.2777 23.2 78.1737 22.944 78.7657 22.432C79.3577 21.92 79.6537 21.208 79.6537 20.296C79.6537 19.368 79.3577 18.648 78.7657 18.136C78.1737 17.624 77.2777 17.368 76.0777 17.368H71.1817L72.9097 15.52V25.048ZM87.038 31V18.088H90.614V21.736L90.11 20.68C90.494 19.768 91.11 19.08 91.958 18.616C92.806 18.136 93.838 17.896 95.054 17.896V21.352C94.894 21.336 94.75 21.328 94.622 21.328C94.494 21.312 94.358 21.304 94.214 21.304C93.19 21.304 92.358 21.6 91.718 22.192C91.094 22.768 90.782 23.672 90.782 24.904V31H87.038ZM104.29 31.192C102.914 31.192 101.69 30.904 100.618 30.328C99.5624 29.752 98.7224 28.968 98.0984 27.976C97.4904 26.968 97.1864 25.824 97.1864 24.544C97.1864 23.248 97.4904 22.104 98.0984 21.112C98.7224 20.104 99.5624 19.32 100.618 18.76C101.69 18.184 102.914 17.896 104.29 17.896C105.65 17.896 106.866 18.184 107.938 18.76C109.01 19.32 109.85 20.096 110.458 21.088C111.066 22.08 111.37 23.232 111.37 24.544C111.37 25.824 111.066 26.968 110.458 27.976C109.85 28.968 109.01 29.752 107.938 30.328C106.866 30.904 105.65 31.192 104.29 31.192ZM104.29 28.12C104.914 28.12 105.474 27.976 105.97 27.688C106.466 27.4 106.858 26.992 107.146 26.464C107.434 25.92 107.578 25.28 107.578 24.544C107.578 23.792 107.434 23.152 107.146 22.624C106.858 22.096 106.466 21.688 105.97 21.4C105.474 21.112 104.914 20.968 104.29 20.968C103.666 20.968 103.106 21.112 102.61 21.4C102.114 21.688 101.714 22.096 101.41 22.624C101.122 23.152 100.978 23.792 100.978 24.544C100.978 25.28 101.122 25.92 101.41 26.464C101.714 26.992 102.114 27.4 102.61 27.688C103.106 27.976 103.666 28.12 104.29 28.12ZM120.377 31.192C119.161 31.192 118.065 30.92 117.089 30.376C116.113 29.816 115.337 29.04 114.761 28.048C114.201 27.056 113.921 25.888 113.921 24.544C113.921 23.184 114.201 22.008 114.761 21.016C115.337 20.024 116.113 19.256 117.089 18.712C118.065 18.168 119.161 17.896 120.377 17.896C121.465 17.896 122.417 18.136 123.233 18.616C124.049 19.096 124.681 19.824 125.129 20.8C125.577 21.776 125.801 23.024 125.801 24.544C125.801 26.048 125.585 27.296 125.153 28.288C124.721 29.264 124.097 29.992 123.281 30.472C122.481 30.952 121.513 31.192 120.377 31.192ZM121.025 28.12C121.633 28.12 122.185 27.976 122.681 27.688C123.177 27.4 123.569 26.992 123.857 26.464C124.161 25.92 124.313 25.28 124.313 24.544C124.313 23.792 124.161 23.152 123.857 22.624C123.569 22.096 123.177 21.688 122.681 21.4C122.185 21.112 121.633 20.968 121.025 20.968C120.401 20.968 119.841 21.112 119.345 21.4C118.849 21.688 118.449 22.096 118.145 22.624C117.857 23.152 117.713 23.792 117.713 24.544C117.713 25.28 117.857 25.92 118.145 26.464C118.449 26.992 118.849 27.4 119.345 27.688C119.841 27.976 120.401 28.12 121.025 28.12ZM124.409 31V28.36L124.481 24.52L124.241 20.704V13.192H127.985V31H124.409ZM137.858 31.192C136.786 31.192 135.826 30.984 134.978 30.568C134.146 30.152 133.498 29.52 133.034 28.672C132.57 27.808 132.338 26.712 132.338 25.384V18.088H136.082V24.832C136.082 25.904 136.306 26.696 136.754 27.208C137.218 27.704 137.866 27.952 138.698 27.952C139.274 27.952 139.786 27.832 140.234 27.592C140.682 27.336 141.034 26.952 141.29 26.44C141.546 25.912 141.674 25.256 141.674 24.472V18.088H145.418V31H141.866V27.448L142.514 28.48C142.082 29.376 141.442 30.056 140.594 30.52C139.762 30.968 138.85 31.192 137.858 31.192ZM156.087 31.192C154.695 31.192 153.455 30.912 152.367 30.352C151.279 29.776 150.423 28.984 149.799 27.976C149.191 26.968 148.887 25.824 148.887 24.544C148.887 23.248 149.191 22.104 149.799 21.112C150.423 20.104 151.279 19.32 152.367 18.76C153.455 18.184 154.695 17.896 156.087 17.896C157.447 17.896 158.631 18.184 159.639 18.76C160.647 19.32 161.391 20.128 161.871 21.184L158.967 22.744C158.631 22.136 158.207 21.688 157.695 21.4C157.199 21.112 156.655 20.968 156.063 20.968C155.423 20.968 154.847 21.112 154.335 21.4C153.823 21.688 153.415 22.096 153.111 22.624C152.823 23.152 152.679 23.792 152.679 24.544C152.679 25.296 152.823 25.936 153.111 26.464C153.415 26.992 153.823 27.4 154.335 27.688C154.847 27.976 155.423 28.12 156.063 28.12C156.655 28.12 157.199 27.984 157.695 27.712C158.207 27.424 158.631 26.968 158.967 26.344L161.871 27.928C161.391 28.968 160.647 29.776 159.639 30.352C158.631 30.912 157.447 31.192 156.087 31.192ZM170.454 31.192C168.934 31.192 167.75 30.808 166.902 30.04C166.054 29.256 165.63 28.096 165.63 26.56V15.232H169.374V26.512C169.374 27.056 169.518 27.48 169.806 27.784C170.094 28.072 170.486 28.216 170.982 28.216C171.574 28.216 172.078 28.056 172.494 27.736L173.502 30.376C173.118 30.648 172.654 30.856 172.11 31C171.582 31.128 171.03 31.192 170.454 31.192ZM163.638 21.256V18.376H172.59V21.256H163.638ZM176.564 31V18.088H180.308V31H176.564ZM178.436 16.288C177.748 16.288 177.188 16.088 176.756 15.688C176.324 15.288 176.108 14.792 176.108 14.2C176.108 13.608 176.324 13.112 176.756 12.712C177.188 12.312 177.748 12.112 178.436 12.112C179.124 12.112 179.684 12.304 180.116 12.688C180.548 13.056 180.764 13.536 180.764 14.128C180.764 14.752 180.548 15.272 180.116 15.688C179.7 16.088 179.14 16.288 178.436 16.288ZM190.886 31.192C189.51 31.192 188.286 30.904 187.214 30.328C186.158 29.752 185.318 28.968 184.694 27.976C184.086 26.968 183.782 25.824 183.782 24.544C183.782 23.248 184.086 22.104 184.694 21.112C185.318 20.104 186.158 19.32 187.214 18.76C188.286 18.184 189.51 17.896 190.886 17.896C192.246 17.896 193.462 18.184 194.534 18.76C195.606 19.32 196.446 20.096 197.054 21.088C197.662 22.08 197.966 23.232 197.966 24.544C197.966 25.824 197.662 26.968 197.054 27.976C196.446 28.968 195.606 29.752 194.534 30.328C193.462 30.904 192.246 31.192 190.886 31.192ZM190.886 28.12C191.51 28.12 192.07 27.976 192.566 27.688C193.062 27.4 193.454 26.992 193.742 26.464C194.03 25.92 194.174 25.28 194.174 24.544C194.174 23.792 194.03 23.152 193.742 22.624C193.454 22.096 193.062 21.688 192.566 21.4C192.07 21.112 191.51 20.968 190.886 20.968C190.262 20.968 189.702 21.112 189.206 21.4C188.71 21.688 188.31 22.096 188.006 22.624C187.718 23.152 187.574 23.792 187.574 24.544C187.574 25.28 187.718 25.92 188.006 26.464C188.31 26.992 188.71 27.4 189.206 27.688C189.702 27.976 190.262 28.12 190.886 28.12ZM209.277 17.896C210.301 17.896 211.213 18.104 212.013 18.52C212.829 18.92 213.469 19.544 213.933 20.392C214.397 21.224 214.629 22.296 214.629 23.608V31H210.885V24.184C210.885 23.144 210.653 22.376 210.189 21.88C209.741 21.384 209.101 21.136 208.269 21.136C207.677 21.136 207.141 21.264 206.661 21.52C206.197 21.76 205.829 22.136 205.557 22.648C205.301 23.16 205.173 23.816 205.173 24.616V31H201.429V18.088H205.005V21.664L204.333 20.584C204.797 19.72 205.461 19.056 206.325 18.592C207.189 18.128 208.173 17.896 209.277 17.896Z" fill="#2EC68E"/>
</svg>
