<svg width="420" height="236" viewBox="0 0 420 236" fill="none" xmlns="http://www.w3.org/2000/svg">
<rect width="420" height="236" fill="#F5FCF3"/>
<path d="M104.656 129V106.6H109.84V129H104.656Z" fill="#2EC68E"/>
<path d="M122.332 129.288C121.1 129.288 120.004 129.088 119.044 128.688C118.084 128.288 117.324 127.744 116.764 127.056C116.204 126.368 115.924 125.576 115.924 124.68C115.924 123.848 116.108 123.104 116.476 122.448C116.844 121.776 117.428 121.152 118.228 120.576C119.028 119.984 120.044 119.408 121.276 118.848C122.172 118.432 122.876 118.064 123.388 117.744C123.9 117.424 124.26 117.12 124.468 116.832C124.676 116.528 124.78 116.224 124.78 115.92C124.78 115.504 124.636 115.168 124.348 114.912C124.076 114.656 123.668 114.528 123.124 114.528C122.548 114.528 122.1 114.672 121.78 114.96C121.46 115.248 121.3 115.616 121.3 116.064C121.3 116.304 121.348 116.544 121.444 116.784C121.54 117.008 121.724 117.272 121.996 117.576C122.268 117.864 122.652 118.24 123.148 118.704L132.004 126.912L129.964 129.288L120.196 120.216C119.636 119.704 119.188 119.224 118.852 118.776C118.516 118.328 118.268 117.888 118.108 117.456C117.964 117.024 117.892 116.576 117.892 116.112C117.892 115.296 118.108 114.576 118.54 113.952C118.972 113.328 119.58 112.848 120.364 112.512C121.148 112.16 122.068 111.984 123.124 111.984C124.1 111.984 124.94 112.144 125.644 112.464C126.364 112.768 126.924 113.208 127.324 113.784C127.74 114.36 127.948 115.048 127.948 115.848C127.948 116.552 127.772 117.2 127.42 117.792C127.068 118.368 126.516 118.912 125.764 119.424C125.028 119.936 124.06 120.456 122.86 120.984C122.044 121.352 121.396 121.712 120.916 122.064C120.452 122.4 120.116 122.744 119.908 123.096C119.7 123.448 119.596 123.84 119.596 124.272C119.596 124.672 119.716 125.032 119.956 125.352C120.212 125.672 120.564 125.92 121.012 126.096C121.46 126.272 121.988 126.36 122.596 126.36C123.572 126.36 124.468 126.136 125.284 125.688C126.1 125.224 126.788 124.544 127.348 123.648C127.924 122.736 128.332 121.632 128.572 120.336L131.572 121.272C131.236 122.904 130.636 124.32 129.772 125.52C128.908 126.72 127.844 127.648 126.58 128.304C125.316 128.96 123.9 129.288 122.332 129.288Z" fill="#2EC68E"/>
<path d="M144.457 129.384C142.665 129.384 140.948 129.149 139.305 128.68C137.663 128.189 136.34 127.56 135.337 126.792L137.097 122.888C138.057 123.571 139.188 124.136 140.489 124.584C141.812 125.011 143.145 125.224 144.489 125.224C145.513 125.224 146.335 125.128 146.953 124.936C147.593 124.723 148.063 124.435 148.361 124.072C148.66 123.709 148.809 123.293 148.809 122.824C148.809 122.227 148.575 121.757 148.105 121.416C147.636 121.053 147.017 120.765 146.249 120.552C145.481 120.317 144.628 120.104 143.689 119.912C142.772 119.699 141.844 119.443 140.905 119.144C139.988 118.845 139.145 118.461 138.377 117.992C137.609 117.523 136.98 116.904 136.489 116.136C136.02 115.368 135.785 114.387 135.785 113.192C135.785 111.912 136.127 110.749 136.809 109.704C137.513 108.637 138.559 107.795 139.945 107.176C141.353 106.536 143.113 106.216 145.225 106.216C146.633 106.216 148.02 106.387 149.385 106.728C150.751 107.048 151.956 107.539 153.001 108.2L151.401 112.136C150.356 111.539 149.311 111.101 148.265 110.824C147.22 110.525 146.196 110.376 145.193 110.376C144.191 110.376 143.369 110.493 142.729 110.728C142.089 110.963 141.631 111.272 141.353 111.656C141.076 112.019 140.937 112.445 140.937 112.936C140.937 113.512 141.172 113.981 141.641 114.344C142.111 114.685 142.729 114.963 143.497 115.176C144.265 115.389 145.108 115.603 146.025 115.816C146.964 116.029 147.892 116.275 148.809 116.552C149.748 116.829 150.601 117.203 151.369 117.672C152.137 118.141 152.756 118.76 153.225 119.528C153.716 120.296 153.961 121.267 153.961 122.44C153.961 123.699 153.609 124.851 152.905 125.896C152.201 126.941 151.145 127.784 149.737 128.424C148.351 129.064 146.591 129.384 144.457 129.384Z" fill="#2EC68E"/>
<path d="M171.022 129V112.2H178.294C179.798 112.2 181.094 112.448 182.182 112.944C183.27 113.424 184.11 114.12 184.702 115.032C185.294 115.944 185.59 117.032 185.59 118.296C185.59 119.544 185.294 120.624 184.702 121.536C184.11 122.448 183.27 123.152 182.182 123.648C181.094 124.128 179.798 124.368 178.294 124.368H173.182L174.91 122.616V129H171.022ZM174.91 123.048L173.182 121.2H178.078C179.278 121.2 180.174 120.944 180.766 120.432C181.358 119.92 181.654 119.208 181.654 118.296C181.654 117.368 181.358 116.648 180.766 116.136C180.174 115.624 179.278 115.368 178.078 115.368H173.182L174.91 113.52V123.048Z" fill="#2EC68E"/>
<path d="M189.038 129V116.088H192.614V119.736L192.11 118.68C192.494 117.768 193.11 117.08 193.958 116.616C194.806 116.136 195.838 115.896 197.054 115.896V119.352C196.894 119.336 196.75 119.328 196.622 119.328C196.494 119.312 196.358 119.304 196.214 119.304C195.19 119.304 194.358 119.6 193.718 120.192C193.094 120.768 192.782 121.672 192.782 122.904V129H189.038Z" fill="#2EC68E"/>
<path d="M206.291 129.192C204.915 129.192 203.691 128.904 202.619 128.328C201.563 127.752 200.723 126.968 200.099 125.976C199.491 124.968 199.187 123.824 199.187 122.544C199.187 121.248 199.491 120.104 200.099 119.112C200.723 118.104 201.563 117.32 202.619 116.76C203.691 116.184 204.915 115.896 206.291 115.896C207.651 115.896 208.867 116.184 209.939 116.76C211.011 117.32 211.851 118.096 212.459 119.088C213.067 120.08 213.371 121.232 213.371 122.544C213.371 123.824 213.067 124.968 212.459 125.976C211.851 126.968 211.011 127.752 209.939 128.328C208.867 128.904 207.651 129.192 206.291 129.192ZM206.291 126.12C206.915 126.12 207.475 125.976 207.971 125.688C208.467 125.4 208.859 124.992 209.147 124.464C209.435 123.92 209.579 123.28 209.579 122.544C209.579 121.792 209.435 121.152 209.147 120.624C208.859 120.096 208.467 119.688 207.971 119.4C207.475 119.112 206.915 118.968 206.291 118.968C205.667 118.968 205.107 119.112 204.611 119.4C204.115 119.688 203.715 120.096 203.411 120.624C203.123 121.152 202.979 121.792 202.979 122.544C202.979 123.28 203.123 123.92 203.411 124.464C203.715 124.992 204.115 125.4 204.611 125.688C205.107 125.976 205.667 126.12 206.291 126.12Z" fill="#2EC68E"/>
<path d="M222.377 129.192C221.161 129.192 220.065 128.92 219.089 128.376C218.113 127.816 217.337 127.04 216.761 126.048C216.201 125.056 215.921 123.888 215.921 122.544C215.921 121.184 216.201 120.008 216.761 119.016C217.337 118.024 218.113 117.256 219.089 116.712C220.065 116.168 221.161 115.896 222.377 115.896C223.465 115.896 224.417 116.136 225.233 116.616C226.049 117.096 226.681 117.824 227.129 118.8C227.577 119.776 227.801 121.024 227.801 122.544C227.801 124.048 227.585 125.296 227.153 126.288C226.721 127.264 226.097 127.992 225.281 128.472C224.481 128.952 223.513 129.192 222.377 129.192ZM223.025 126.12C223.633 126.12 224.185 125.976 224.681 125.688C225.177 125.4 225.569 124.992 225.857 124.464C226.161 123.92 226.313 123.28 226.313 122.544C226.313 121.792 226.161 121.152 225.857 120.624C225.569 120.096 225.177 119.688 224.681 119.4C224.185 119.112 223.633 118.968 223.025 118.968C222.401 118.968 221.841 119.112 221.345 119.4C220.849 119.688 220.449 120.096 220.145 120.624C219.857 121.152 219.713 121.792 219.713 122.544C219.713 123.28 219.857 123.92 220.145 124.464C220.449 124.992 220.849 125.4 221.345 125.688C221.841 125.976 222.401 126.12 223.025 126.12ZM226.409 129V126.36L226.481 122.52L226.241 118.704V111.192H229.985V129H226.409Z" fill="#2EC68E"/>
<path d="M239.858 129.192C238.786 129.192 237.826 128.984 236.978 128.568C236.146 128.152 235.498 127.52 235.034 126.672C234.57 125.808 234.338 124.712 234.338 123.384V116.088H238.082V122.832C238.082 123.904 238.306 124.696 238.754 125.208C239.218 125.704 239.866 125.952 240.698 125.952C241.274 125.952 241.786 125.832 242.234 125.592C242.682 125.336 243.034 124.952 243.29 124.44C243.546 123.912 243.674 123.256 243.674 122.472V116.088H247.418V129H243.866V125.448L244.514 126.48C244.082 127.376 243.442 128.056 242.594 128.52C241.762 128.968 240.85 129.192 239.858 129.192Z" fill="#2EC68E"/>
<path d="M258.087 129.192C256.695 129.192 255.455 128.912 254.367 128.352C253.279 127.776 252.423 126.984 251.799 125.976C251.191 124.968 250.887 123.824 250.887 122.544C250.887 121.248 251.191 120.104 251.799 119.112C252.423 118.104 253.279 117.32 254.367 116.76C255.455 116.184 256.695 115.896 258.087 115.896C259.447 115.896 260.631 116.184 261.639 116.76C262.647 117.32 263.391 118.128 263.871 119.184L260.967 120.744C260.631 120.136 260.207 119.688 259.695 119.4C259.199 119.112 258.655 118.968 258.063 118.968C257.423 118.968 256.847 119.112 256.335 119.4C255.823 119.688 255.415 120.096 255.111 120.624C254.823 121.152 254.679 121.792 254.679 122.544C254.679 123.296 254.823 123.936 255.111 124.464C255.415 124.992 255.823 125.4 256.335 125.688C256.847 125.976 257.423 126.12 258.063 126.12C258.655 126.12 259.199 125.984 259.695 125.712C260.207 125.424 260.631 124.968 260.967 124.344L263.871 125.928C263.391 126.968 262.647 127.776 261.639 128.352C260.631 128.912 259.447 129.192 258.087 129.192Z" fill="#2EC68E"/>
<path d="M272.454 129.192C270.934 129.192 269.75 128.808 268.902 128.04C268.054 127.256 267.63 126.096 267.63 124.56V113.232H271.374V124.512C271.374 125.056 271.518 125.48 271.806 125.784C272.094 126.072 272.486 126.216 272.982 126.216C273.574 126.216 274.078 126.056 274.494 125.736L275.502 128.376C275.118 128.648 274.654 128.856 274.11 129C273.582 129.128 273.03 129.192 272.454 129.192ZM265.638 119.256V116.376H274.59V119.256H265.638Z" fill="#2EC68E"/>
<path d="M278.564 129V116.088H282.308V129H278.564ZM280.436 114.288C279.748 114.288 279.188 114.088 278.756 113.688C278.324 113.288 278.108 112.792 278.108 112.2C278.108 111.608 278.324 111.112 278.756 110.712C279.188 110.312 279.748 110.112 280.436 110.112C281.124 110.112 281.684 110.304 282.116 110.688C282.548 111.056 282.764 111.536 282.764 112.128C282.764 112.752 282.548 113.272 282.116 113.688C281.7 114.088 281.14 114.288 280.436 114.288Z" fill="#2EC68E"/>
<path d="M292.887 129.192C291.511 129.192 290.287 128.904 289.215 128.328C288.159 127.752 287.319 126.968 286.695 125.976C286.087 124.968 285.783 123.824 285.783 122.544C285.783 121.248 286.087 120.104 286.695 119.112C287.319 118.104 288.159 117.32 289.215 116.76C290.287 116.184 291.511 115.896 292.887 115.896C294.247 115.896 295.463 116.184 296.535 116.76C297.607 117.32 298.447 118.096 299.055 119.088C299.663 120.08 299.967 121.232 299.967 122.544C299.967 123.824 299.663 124.968 299.055 125.976C298.447 126.968 297.607 127.752 296.535 128.328C295.463 128.904 294.247 129.192 292.887 129.192ZM292.887 126.12C293.511 126.12 294.071 125.976 294.567 125.688C295.063 125.4 295.455 124.992 295.743 124.464C296.031 123.92 296.175 123.28 296.175 122.544C296.175 121.792 296.031 121.152 295.743 120.624C295.455 120.096 295.063 119.688 294.567 119.4C294.071 119.112 293.511 118.968 292.887 118.968C292.263 118.968 291.703 119.112 291.207 119.4C290.711 119.688 290.311 120.096 290.007 120.624C289.719 121.152 289.575 121.792 289.575 122.544C289.575 123.28 289.719 123.92 290.007 124.464C290.311 124.992 290.711 125.4 291.207 125.688C291.703 125.976 292.263 126.12 292.887 126.12Z" fill="#2EC68E"/>
<path d="M311.277 115.896C312.301 115.896 313.213 116.104 314.013 116.52C314.829 116.92 315.469 117.544 315.933 118.392C316.397 119.224 316.629 120.296 316.629 121.608V129H312.885V122.184C312.885 121.144 312.653 120.376 312.189 119.88C311.741 119.384 311.101 119.136 310.269 119.136C309.677 119.136 309.141 119.264 308.661 119.52C308.197 119.76 307.829 120.136 307.557 120.648C307.301 121.16 307.173 121.816 307.173 122.616V129H303.429V116.088H307.005V119.664L306.333 118.584C306.797 117.72 307.461 117.056 308.325 116.592C309.189 116.128 310.173 115.896 311.277 115.896Z" fill="#2EC68E"/>
</svg>
