<svg width="13" height="12" viewBox="0 0 13 12" fill="none" xmlns="http://www.w3.org/2000/svg">
<path fill-rule="evenodd" clip-rule="evenodd" d="M2.54297 1.69934C2.54297 1.14706 2.99068 0.699341 3.54297 0.699341H10.543C11.0953 0.699341 11.543 1.14706 11.543 1.69934V8.69934C11.543 9.25163 11.0953 9.69934 10.543 9.69934H3.54297C2.99068 9.69934 2.54297 9.25163 2.54297 8.69934V1.69934ZM10.543 1.69934H3.54297V8.69934H10.543V1.69934Z" fill="#429CAD"/>
<path fill-rule="evenodd" clip-rule="evenodd" d="M1.04297 2.69934C1.31911 2.69934 1.54297 2.9232 1.54297 3.19934V10.1993C1.54297 10.4755 1.76683 10.6993 2.04297 10.6993H9.04297C9.31911 10.6993 9.54297 10.9232 9.54297 11.1993C9.54297 11.4755 9.31911 11.6993 9.04297 11.6993H2.04297C1.21454 11.6993 0.542969 11.0278 0.542969 10.1993V3.19934C0.542969 2.9232 0.766826 2.69934 1.04297 2.69934Z" fill="#429CAD"/>
</svg>
