<svg width="32" height="32" viewBox="0 0 32 32" fill="none" xmlns="http://www.w3.org/2000/svg">
<path fill-rule="evenodd" clip-rule="evenodd" d="M26.7242 16C26.7242 21.8729 21.954 26.6909 16 26.6909C10.046 26.6909 5.27581 21.8729 5.27581 16C5.27581 10.1271 10.046 5.30909 16 5.30909C21.954 5.30909 26.7242 10.1271 26.7242 16ZM28 16C28 22.6274 22.6274 28 16 28C9.37258 28 4 22.6274 4 16C4 9.37258 9.37258 4 16 4C22.6274 4 28 9.37258 28 16ZM13.338 11.8225C13.137 11.7593 12.9269 11.8205 12.791 11.9629C10.9639 13.962 10.2481 16.3142 10.2482 17.5122C10.2482 18.9665 11.4265 20.1455 12.8819 20.1455C14.3359 20.1455 15.5149 18.9666 15.5149 17.5122C15.5149 16.0581 14.3359 14.8791 12.8819 14.8791C12.8819 14.8791 13.2285 13.4805 13.6891 12.4928C13.7773 12.2103 13.6202 11.9101 13.338 11.8225ZM19.5749 11.8225C19.3752 11.7593 19.1645 11.8205 19.0279 11.9629C17.2008 13.962 16.4851 16.3142 16.4851 17.5122C16.4851 18.9665 17.664 20.1455 19.1194 20.1455C20.5735 20.1455 21.7518 18.9666 21.7518 17.5122C21.7518 16.0581 20.5735 14.8791 19.1194 14.8791C19.1194 14.8791 19.466 13.4805 19.9266 12.4929C20.0149 12.2103 19.8577 11.9101 19.5749 11.8225Z" fill="#1F2526" fill-opacity="0.65"/>
</svg>
