<svg width="243" height="86" viewBox="0 0 243 86" fill="none" xmlns="http://www.w3.org/2000/svg">
<path d="M3.28378 39.6923L6.12762 44.6539H0.439944L3.28378 39.6923Z" fill="#F0C21B" fill-opacity="0.16"/>
<path d="M3.28378 39.6923L6.12762 44.6539H0.439944L3.28378 39.6923Z" fill="#F0C21B" fill-opacity="0.16"/>
<path d="M22.9864 39.6923L25.8303 44.6539H20.1426L22.9864 39.6923Z" fill="#F0C21B" fill-opacity="0.16"/>
<path d="M42.6891 39.6923L45.5329 44.6539H39.8452L42.6891 39.6923Z" fill="#F0C21B" fill-opacity="0.16"/>
<path d="M62.3922 39.6923L65.236 44.6539H59.5483L62.3922 39.6923Z" fill="#F0C21B" fill-opacity="0.16"/>
<path d="M82.0943 39.6923L84.9382 44.6539H79.2505L82.0943 39.6923Z" fill="#F0C21B" fill-opacity="0.16"/>
<path d="M101.797 39.6923L104.641 44.6539H98.9536L101.797 39.6923Z" fill="#F0C21B" fill-opacity="0.16"/>
<path d="M121.5 39.6923L124.344 44.6539H118.656L121.5 39.6923Z" fill="#F0C21B" fill-opacity="0.16"/>
<path d="M141.203 39.6923L144.047 44.6539H138.359L141.203 39.6923Z" fill="#F0C21B" fill-opacity="0.16"/>
<path d="M160.905 39.6923L163.749 44.6539H158.062L160.905 39.6923Z" fill="#F0C21B" fill-opacity="0.16"/>
<path d="M180.608 39.6923L183.452 44.6539H177.764L180.608 39.6923Z" fill="#F0C21B" fill-opacity="0.16"/>
<path d="M200.311 39.6923L203.155 44.6539H197.467L200.311 39.6923Z" fill="#F0C21B" fill-opacity="0.16"/>
<path d="M220.013 39.6923L222.857 44.6539H217.169L220.013 39.6923Z" fill="#F0C21B" fill-opacity="0.16"/>
<path d="M239.716 39.6923L242.56 44.6539H236.873L239.716 39.6923Z" fill="#F0C21B" fill-opacity="0.16"/>
<rect width="6.56757" height="6.61538" fill="#F0C21B" fill-opacity="0.16"/>
<rect y="59.5385" width="6.56757" height="6.61538" fill="#F0C21B" fill-opacity="0.16"/>
<rect x="19.7026" width="6.56757" height="6.61538" fill="#F0C21B" fill-opacity="0.16"/>
<rect x="19.7026" y="59.5385" width="6.56757" height="6.61538" fill="#F0C21B" fill-opacity="0.16"/>
<rect x="39.4053" width="6.56757" height="6.61538" fill="#F0C21B" fill-opacity="0.16"/>
<rect x="39.4053" y="59.5385" width="6.56757" height="6.61538" fill="#F0C21B" fill-opacity="0.16"/>
<rect x="59.1084" width="6.56757" height="6.61538" fill="#F0C21B" fill-opacity="0.16"/>
<rect x="59.1084" y="59.5385" width="6.56757" height="6.61538" fill="#F0C21B" fill-opacity="0.16"/>
<rect x="78.8105" width="6.56757" height="6.61538" fill="#F0C21B" fill-opacity="0.16"/>
<rect x="78.8105" y="59.5385" width="6.56757" height="6.61538" fill="#F0C21B" fill-opacity="0.16"/>
<rect x="98.5137" width="6.56757" height="6.61538" fill="#F0C21B" fill-opacity="0.16"/>
<rect x="98.5137" y="59.5385" width="6.56757" height="6.61538" fill="#F0C21B" fill-opacity="0.16"/>
<rect x="118.216" width="6.56757" height="6.61538" fill="#F0C21B" fill-opacity="0.16"/>
<rect x="118.216" y="59.5385" width="6.56757" height="6.61538" fill="#F0C21B" fill-opacity="0.16"/>
<rect x="137.919" width="6.56757" height="6.61538" fill="#F0C21B" fill-opacity="0.16"/>
<rect x="137.919" y="59.5385" width="6.56757" height="6.61538" fill="#F0C21B" fill-opacity="0.16"/>
<rect x="157.622" width="6.56757" height="6.61538" fill="#F0C21B" fill-opacity="0.16"/>
<rect x="157.622" y="59.5385" width="6.56757" height="6.61538" fill="#F0C21B" fill-opacity="0.16"/>
<rect x="177.324" width="6.56757" height="6.61538" fill="#F0C21B" fill-opacity="0.16"/>
<rect x="177.324" y="59.5385" width="6.56757" height="6.61538" fill="#F0C21B" fill-opacity="0.16"/>
<rect x="197.027" width="6.56757" height="6.61538" fill="#F0C21B" fill-opacity="0.16"/>
<rect x="197.027" y="59.5385" width="6.56757" height="6.61538" fill="#F0C21B" fill-opacity="0.16"/>
<rect x="216.729" width="6.56757" height="6.61538" fill="#F0C21B" fill-opacity="0.16"/>
<rect x="216.729" y="59.5385" width="6.56757" height="6.61538" fill="#F0C21B" fill-opacity="0.16"/>
<rect x="236.433" width="6.56757" height="6.61538" fill="#F0C21B" fill-opacity="0.16"/>
<rect x="236.433" y="59.5385" width="6.56757" height="6.61538" fill="#F0C21B" fill-opacity="0.16"/>
<ellipse cx="3.28378" cy="23.1539" rx="3.28378" ry="3.30769" fill="#F0C21B" fill-opacity="0.16"/>
<ellipse cx="3.28378" cy="82.6923" rx="3.28378" ry="3.30769" fill="#F0C21B" fill-opacity="0.16"/>
<ellipse cx="22.9864" cy="23.1539" rx="3.28378" ry="3.30769" fill="#F0C21B" fill-opacity="0.16"/>
<ellipse cx="22.9864" cy="82.6923" rx="3.28378" ry="3.30769" fill="#F0C21B" fill-opacity="0.16"/>
<ellipse cx="42.6891" cy="23.1539" rx="3.28378" ry="3.30769" fill="#F0C21B" fill-opacity="0.16"/>
<ellipse cx="42.6891" cy="82.6923" rx="3.28378" ry="3.30769" fill="#F0C21B" fill-opacity="0.16"/>
<ellipse cx="62.3922" cy="23.1539" rx="3.28378" ry="3.30769" fill="#F0C21B" fill-opacity="0.16"/>
<ellipse cx="62.3922" cy="82.6923" rx="3.28378" ry="3.30769" fill="#F0C21B" fill-opacity="0.16"/>
<ellipse cx="82.0943" cy="23.1539" rx="3.28378" ry="3.30769" fill="#F0C21B" fill-opacity="0.16"/>
<ellipse cx="82.0943" cy="82.6923" rx="3.28378" ry="3.30769" fill="#F0C21B" fill-opacity="0.16"/>
<ellipse cx="101.797" cy="23.1539" rx="3.28378" ry="3.30769" fill="#F0C21B" fill-opacity="0.16"/>
<ellipse cx="101.797" cy="82.6923" rx="3.28378" ry="3.30769" fill="#F0C21B" fill-opacity="0.16"/>
<ellipse cx="121.5" cy="23.1539" rx="3.28378" ry="3.30769" fill="#F0C21B" fill-opacity="0.16"/>
<ellipse cx="121.5" cy="82.6923" rx="3.28378" ry="3.30769" fill="#F0C21B" fill-opacity="0.16"/>
<ellipse cx="141.203" cy="23.1539" rx="3.28378" ry="3.30769" fill="#F0C21B" fill-opacity="0.16"/>
<ellipse cx="141.203" cy="82.6923" rx="3.28378" ry="3.30769" fill="#F0C21B" fill-opacity="0.16"/>
<ellipse cx="160.905" cy="23.1539" rx="3.28378" ry="3.30769" fill="#F0C21B" fill-opacity="0.16"/>
<ellipse cx="160.905" cy="82.6923" rx="3.28378" ry="3.30769" fill="#F0C21B" fill-opacity="0.16"/>
<ellipse cx="180.608" cy="23.1539" rx="3.28378" ry="3.30769" fill="#F0C21B" fill-opacity="0.16"/>
<ellipse cx="180.608" cy="82.6923" rx="3.28378" ry="3.30769" fill="#F0C21B" fill-opacity="0.16"/>
<ellipse cx="200.311" cy="23.1539" rx="3.28378" ry="3.30769" fill="#F0C21B" fill-opacity="0.16"/>
<ellipse cx="200.311" cy="82.6923" rx="3.28378" ry="3.30769" fill="#F0C21B" fill-opacity="0.16"/>
<ellipse cx="220.013" cy="23.1539" rx="3.28378" ry="3.30769" fill="#F0C21B" fill-opacity="0.16"/>
<ellipse cx="220.013" cy="82.6923" rx="3.28378" ry="3.30769" fill="#F0C21B" fill-opacity="0.16"/>
<ellipse cx="239.716" cy="23.1539" rx="3.28378" ry="3.30769" fill="#F0C21B" fill-opacity="0.16"/>
<ellipse cx="239.716" cy="82.6923" rx="3.28378" ry="3.30769" fill="#F0C21B" fill-opacity="0.16"/>
</svg>
