<svg width="220" height="78" viewBox="0 0 220 78" fill="none" xmlns="http://www.w3.org/2000/svg">
<path d="M2.97297 35.9999L5.54764 40.4999H0.398303L2.97297 35.9999Z" fill="#30C78C" fill-opacity="0.08"/>
<path d="M2.97297 35.9999L5.54764 40.4999H0.398303L2.97297 35.9999Z" fill="#30C78C" fill-opacity="0.08"/>
<path d="M20.8109 35.9999L23.3855 40.4999H18.2362L20.8109 35.9999Z" fill="#30C78C" fill-opacity="0.08"/>
<path d="M38.6488 35.9999L41.2234 40.4999H36.0741L38.6488 35.9999Z" fill="#30C78C" fill-opacity="0.08"/>
<path d="M56.4866 35.9999L59.0613 40.4999H53.912L56.4866 35.9999Z" fill="#30C78C" fill-opacity="0.08"/>
<path d="M74.324 35.9999L76.8987 40.4999H71.7494L74.324 35.9999Z" fill="#30C78C" fill-opacity="0.08"/>
<path d="M91.973 36L94.5476 40.5H89.3983L91.973 36Z" fill="#30C78C" fill-opacity="0.08"/>
<path d="M110 35.9999L112.575 40.4999H107.426L110 35.9999Z" fill="#30C78C" fill-opacity="0.08"/>
<path d="M127.838 35.9999L130.412 40.4999H125.263L127.838 35.9999Z" fill="#30C78C" fill-opacity="0.08"/>
<path d="M145.676 35.9999L148.25 40.4999H143.101L145.676 35.9999Z" fill="#30C78C" fill-opacity="0.08"/>
<path d="M163.513 35.9999L166.088 40.4999H160.938L163.513 35.9999Z" fill="#30C78C" fill-opacity="0.08"/>
<path d="M181.351 35.9999L183.926 40.4999H178.777L181.351 35.9999Z" fill="#30C78C" fill-opacity="0.08"/>
<path d="M199.189 35.9999L201.763 40.4999H196.614L199.189 35.9999Z" fill="#30C78C" fill-opacity="0.08"/>
<path d="M217.027 35.9999L219.602 40.4999H214.453L217.027 35.9999Z" fill="#30C78C" fill-opacity="0.08"/>
<rect width="5.94594" height="6" fill="#30C78C" fill-opacity="0.08"/>
<rect y="53.9999" width="5.94594" height="6" fill="#30C78C" fill-opacity="0.08"/>
<rect x="17.8379" width="5.94594" height="6" fill="#30C78C" fill-opacity="0.08"/>
<rect x="17.8379" y="53.9999" width="5.94594" height="6" fill="#30C78C" fill-opacity="0.08"/>
<rect x="35.6758" width="5.94594" height="6" fill="#30C78C" fill-opacity="0.08"/>
<rect x="35.6758" y="53.9999" width="5.94594" height="6" fill="#30C78C" fill-opacity="0.08"/>
<rect x="53.5137" width="5.94594" height="6" fill="#30C78C" fill-opacity="0.08"/>
<rect x="53.5137" y="53.9999" width="5.94594" height="6" fill="#30C78C" fill-opacity="0.08"/>
<rect x="71.3511" width="5.94594" height="6" fill="#30C78C" fill-opacity="0.08"/>
<rect x="71.3511" y="53.9999" width="5.94594" height="6" fill="#30C78C" fill-opacity="0.08"/>
<rect x="89.1895" width="5.94594" height="6" fill="#30C78C" fill-opacity="0.08"/>
<rect x="89.1895" y="53.9999" width="5.94594" height="6" fill="#30C78C" fill-opacity="0.08"/>
<rect x="107.027" width="5.94594" height="6" fill="#30C78C" fill-opacity="0.08"/>
<rect x="107.027" y="53.9999" width="5.94594" height="6" fill="#30C78C" fill-opacity="0.08"/>
<rect x="124.865" width="5.94594" height="6" fill="#30C78C" fill-opacity="0.08"/>
<rect x="124.865" y="53.9999" width="5.94594" height="6" fill="#30C78C" fill-opacity="0.08"/>
<rect x="142.703" width="5.94594" height="6" fill="#30C78C" fill-opacity="0.08"/>
<rect x="142.703" y="53.9999" width="5.94594" height="6" fill="#30C78C" fill-opacity="0.08"/>
<rect x="160.54" width="5.94594" height="6" fill="#30C78C" fill-opacity="0.08"/>
<rect x="160.54" y="53.9999" width="5.94594" height="6" fill="#30C78C" fill-opacity="0.08"/>
<rect x="178.378" width="5.94594" height="6" fill="#30C78C" fill-opacity="0.08"/>
<rect x="178.378" y="53.9999" width="5.94594" height="6" fill="#30C78C" fill-opacity="0.08"/>
<rect x="196.216" width="5.94594" height="6" fill="#30C78C" fill-opacity="0.08"/>
<rect x="196.216" y="53.9999" width="5.94594" height="6" fill="#30C78C" fill-opacity="0.08"/>
<rect x="214.054" width="5.94594" height="6" fill="#30C78C" fill-opacity="0.08"/>
<rect x="214.054" y="53.9999" width="5.94594" height="6" fill="#30C78C" fill-opacity="0.08"/>
<ellipse cx="2.97297" cy="21" rx="2.97297" ry="3" fill="#30C78C" fill-opacity="0.08"/>
<ellipse cx="2.97297" cy="75" rx="2.97297" ry="3" fill="#30C78C" fill-opacity="0.08"/>
<ellipse cx="20.8109" cy="21" rx="2.97297" ry="3" fill="#30C78C" fill-opacity="0.08"/>
<ellipse cx="20.8109" cy="75" rx="2.97297" ry="3" fill="#30C78C" fill-opacity="0.08"/>
<ellipse cx="38.6488" cy="21" rx="2.97297" ry="3" fill="#30C78C" fill-opacity="0.08"/>
<ellipse cx="38.6488" cy="75" rx="2.97297" ry="3" fill="#30C78C" fill-opacity="0.08"/>
<ellipse cx="56.4866" cy="21" rx="2.97297" ry="3" fill="#30C78C" fill-opacity="0.08"/>
<ellipse cx="56.4866" cy="75" rx="2.97297" ry="3" fill="#30C78C" fill-opacity="0.08"/>
<ellipse cx="74.324" cy="21" rx="2.97297" ry="3" fill="#30C78C" fill-opacity="0.08"/>
<ellipse cx="74.324" cy="75" rx="2.97297" ry="3" fill="#30C78C" fill-opacity="0.08"/>
<ellipse cx="92.1624" cy="21" rx="2.97297" ry="3" fill="#30C78C" fill-opacity="0.08"/>
<ellipse cx="92.1624" cy="75" rx="2.97297" ry="3" fill="#30C78C" fill-opacity="0.08"/>
<ellipse cx="110" cy="21" rx="2.97297" ry="3" fill="#30C78C" fill-opacity="0.08"/>
<ellipse cx="110" cy="75" rx="2.97297" ry="3" fill="#30C78C" fill-opacity="0.08"/>
<ellipse cx="127.838" cy="21" rx="2.97297" ry="3" fill="#30C78C" fill-opacity="0.08"/>
<ellipse cx="127.838" cy="75" rx="2.97297" ry="3" fill="#30C78C" fill-opacity="0.08"/>
<ellipse cx="145.676" cy="21" rx="2.97297" ry="3" fill="#30C78C" fill-opacity="0.08"/>
<ellipse cx="145.676" cy="75" rx="2.97297" ry="3" fill="#30C78C" fill-opacity="0.08"/>
<ellipse cx="163.513" cy="21" rx="2.97297" ry="3" fill="#30C78C" fill-opacity="0.08"/>
<ellipse cx="163.513" cy="75" rx="2.97297" ry="3" fill="#30C78C" fill-opacity="0.08"/>
<ellipse cx="181.351" cy="21" rx="2.97297" ry="3" fill="#30C78C" fill-opacity="0.08"/>
<ellipse cx="181.351" cy="75" rx="2.97297" ry="3" fill="#30C78C" fill-opacity="0.08"/>
<ellipse cx="199.189" cy="21" rx="2.97297" ry="3" fill="#30C78C" fill-opacity="0.08"/>
<ellipse cx="199.189" cy="75" rx="2.97297" ry="3" fill="#30C78C" fill-opacity="0.08"/>
<ellipse cx="217.027" cy="21" rx="2.97297" ry="3" fill="#30C78C" fill-opacity="0.08"/>
<ellipse cx="217.027" cy="75" rx="2.97297" ry="3" fill="#30C78C" fill-opacity="0.08"/>
</svg>
